HIERARCHY
ROOT Hips
{
	OFFSET 0.000000 88.474243 0.000000
	CHANNELS 6 Xposition Yposition Zposition Zrotation Yrotation Xrotation 
	JOINT Hips_Spine
	{
		OFFSET 0.000000 0.000000 0.000000
		CHANNELS 3 Zrotation Yrotation Xrotation
		JOINT Spine
		{
			OFFSET 0.005100 8.711998 -0.691000
			CHANNELS 3 Zrotation Yrotation Xrotation
			JOINT Spine1
			{
				OFFSET -0.009200 8.660301 -1.275000
				CHANNELS 3 Zrotation Yrotation Xrotation
				JOINT Spine2
				{
					OFFSET 0.006300 9.852501 -1.857000
					CHANNELS 3 Zrotation Yrotation Xrotation
					JOINT Spine2_Neck
					{
						OFFSET 0.000000 0.000000 0.000000
						CHANNELS 3 Zrotation Yrotation Xrotation
						JOINT Neck
						{
							OFFSET 0.016300 11.420799 -0.263300
							CHANNELS 3 Zrotation Yrotation Xrotation
							End Site #name: Head
							{
								OFFSET -0.019200 9.262405 2.362500
							}
						}
					}
					JOINT Spine2_LeftShoulder
					{
						OFFSET 0.000000 0.000000 0.000000
						CHANNELS 3 Zrotation Yrotation Xrotation
						JOINT LeftShoulder
						{
							OFFSET 5.616900 6.732201 -0.345700
							CHANNELS 3 Zrotation Yrotation Xrotation
							JOINT LeftArm
							{
								OFFSET 10.664888 -0.183372 -2.440700
								CHANNELS 3 Zrotation Yrotation Xrotation
								JOINT LeftForeArm
								{
									OFFSET 27.459126 0.000000 0.000000
									CHANNELS 3 Zrotation Yrotation Xrotation
									End Site #name: LeftHand
									{
										OFFSET 21.306858 0.000000 0.000000
									}
								}
							}
						}
					}
					JOINT Spine2_RightShoulder
					{
						OFFSET 0.000000 0.000000 0.000000
						CHANNELS 3 Zrotation Yrotation Xrotation
						JOINT RightShoulder
						{
							OFFSET -5.580300 6.737503 -0.344400
							CHANNELS 3 Zrotation Yrotation Xrotation
							JOINT RightArm
							{
								OFFSET -10.679335 -0.188484 -2.383900
								CHANNELS 3 Zrotation Yrotation Xrotation
								JOINT RightForeArm
								{
									OFFSET -27.503529 0.000000 0.000000
									CHANNELS 3 Zrotation Yrotation Xrotation
									End Site #name: RightHand
									{
										OFFSET -21.306808 0.000000 0.000000
									}
								}
							}
						}
					}
				}
			}
		}
	}
	JOINT Hips_LeftUpLeg
	{
		OFFSET 0.000000 0.000000 0.000000
		CHANNELS 3 Zrotation Yrotation Xrotation
		JOINT LeftUpLeg
		{
			OFFSET 6.857700 -6.739601 0.312100
			CHANNELS 3 Zrotation Yrotation Xrotation
			JOINT LeftLeg
			{
				OFFSET -0.367590 -34.731552 -4.572400
				CHANNELS 3 Zrotation Yrotation Xrotation
				End Site #name: LeftFoot
				{
					OFFSET 0.367590 -34.656704 -6.067400
				}
			}
		}
	}
	JOINT Hips_RightUpLeg
	{
		OFFSET 0.000000 0.000000 0.000000
		CHANNELS 3 Zrotation Yrotation Xrotation
		JOINT RightUpLeg
		{
			OFFSET -6.876100 -6.733299 0.301000
			CHANNELS 3 Zrotation Yrotation Xrotation
			JOINT RightLeg
			{
				OFFSET 0.347353 -34.795158 -4.515900
				CHANNELS 3 Zrotation Yrotation Xrotation
				End Site #name: RightFoot
				{
					OFFSET -0.347353 -34.589367 -6.070300
				}
			}
		}
	}
}
MOTION
Frames: 7
Frame Time: 0.041667
-0.036746 0.207812 -1.362739 -4.691375 1.688734 -4.511740 0.000000 0.000000 0.000000 3.892535 0.585811 20.537565 0.371584 0.389461 3.512603 0.000000 0.000000 0.000000 0.680420 0.290339 2.541819 1.143666 -1.549595 10.106658 0.568944 0.327598 3.172219 -4.087281 0.415981 -0.691951 -65.220945 -6.821979 11.205264 -0.084346 -55.229099 0.898733 0.455376 0.389344 3.503355 4.726070 -4.659471 0.238710 72.414889 16.880226 9.115680 -1.536826 81.282228 -1.620504 0.000000 0.000000 0.000000 5.953780 7.448410 -77.803754 4.136732 -4.272097 71.196468 0.000000 -0.000000 0.000000 -2.965430 -8.751013 -71.597594 -0.548836 -0.143043 76.561260 
-0.039879 0.214416 -1.400812 -4.683173 1.690276 -4.512067 0.000000 0.000000 0.000000 3.887487 0.597734 20.504538 0.374986 0.391288 3.528157 0.000000 0.000000 0.000000 0.689160 0.290187 2.564976 1.146895 -1.550069 10.089584 0.575513 0.327588 3.187578 -4.093978 0.350451 -0.682649 -65.189209 -6.882834 11.106352 -0.077588 -54.868517 0.892179 0.464986 0.389280 3.526490 4.806923 -4.686903 0.235179 72.423443 16.951960 9.356585 -1.387302 80.512296 -1.464165 0.000000 0.000000 0.000000 5.954688 7.452601 -77.802869 4.145832 -4.270756 71.192097 0.000000 -0.000000 0.000000 -2.960176 -8.744892 -71.588552 -0.550598 -0.146116 76.556133 
-0.042097 0.220778 -1.438601 -4.675808 1.690084 -4.512709 0.000000 0.000000 0.000000 3.881507 0.613479 20.466236 0.378777 0.393338 3.542748 0.000000 0.000000 0.000000 0.697941 0.290415 2.588577 1.150153 -1.547848 10.066040 0.582861 0.328144 3.204294 -4.103960 0.271330 -0.671182 -65.152043 -6.956093 10.991663 -0.070803 -54.409236 0.885466 0.476039 0.389326 3.549123 4.898684 -4.713563 0.231117 72.424263 17.027477 9.614839 -1.242831 79.644354 -1.311399 0.000000 0.000000 0.000000 5.955633 7.455569 -77.802488 4.153656 -4.269001 71.189247 0.000000 -0.000000 0.000000 -2.955003 -8.743688 -71.587069 -0.551267 -0.147505 76.550438 
-0.043399 0.226885 -1.476112 -4.671001 1.689892 -4.510529 0.000000 0.000000 0.000000 3.875846 0.632717 20.428181 0.383113 0.396108 3.558363 0.000000 0.000000 0.000000 0.707769 0.291107 2.612370 1.152272 -1.544040 10.032237 0.590486 0.328804 3.220971 -4.117387 0.178810 -0.657677 -65.118493 -7.030604 10.885390 -0.062657 -53.854906 0.876716 0.488273 0.389242 3.572286 5.000776 -4.736270 0.226657 72.422680 17.106858 9.893672 -1.112272 78.673786 -1.171165 0.000000 0.000000 0.000000 5.957857 7.458678 -77.803645 4.162624 -4.265964 71.189857 0.000000 -0.000000 0.000000 -2.949322 -8.741578 -71.585016 -0.551711 -0.148513 76.547924 
-0.043769 0.232867 -1.513348 -4.665916 1.688813 -4.510774 0.000000 0.000000 0.000000 3.869342 0.651292 20.388451 0.387345 0.399155 3.575232 0.000000 0.000000 0.000000 0.718037 0.292310 2.638783 1.154749 -1.540187 9.996688 0.599165 0.329941 3.240053 -4.138668 0.073722 -0.640762 -65.087249 -7.155848 10.794665 -0.055014 -53.211363 0.869117 0.500774 0.390066 3.597704 5.109328 -4.752530 0.221786 72.409237 17.193981 10.156241 -0.993499 77.611304 -1.041393 0.000000 0.000000 0.000000 5.958778 7.463648 -77.806878 4.172780 -4.263806 71.191706 0.000000 -0.000000 0.000000 -2.943115 -8.743093 -71.592288 -0.553445 -0.150057 76.550783 
-0.043186 0.238725 -1.550303 -4.662294 1.686617 -4.509056 0.000000 0.000000 0.000000 3.862856 0.671713 20.346067 0.391853 0.402018 3.593694 0.000000 0.000000 0.000000 0.728677 0.293622 2.667087 1.156906 -1.533836 9.955957 0.607526 0.331540 3.261291 -4.162856 -0.039607 -0.623481 -65.063578 -7.264405 10.700898 -0.046042 -52.502307 0.859048 0.514705 0.390138 3.624415 5.220009 -4.762505 0.217525 72.402942 17.285312 10.428695 -0.885799 76.459591 -0.922511 0.000000 0.000000 0.000000 5.959797 7.468690 -77.807736 4.182820 -4.260814 71.189038 0.000000 -0.000000 0.000000 -2.938272 -8.741391 -71.593378 -0.555187 -0.151047 76.554466 
-0.041620 0.244425 -1.587011 -4.659176 1.686263 -4.506508 0.000000 0.000000 0.000000 3.856166 0.691006 20.304493 0.396669 0.404928 3.612432 0.000000 0.000000 0.000000 0.740087 0.294574 2.696861 1.157364 -1.526668 9.910344 0.617002 0.332602 3.283633 -4.186276 -0.153773 -0.604841 -65.040482 -7.394753 10.616315 -0.037694 -51.678293 0.849492 0.528786 0.390620 3.652081 5.326130 -4.763099 0.214202 72.383964 17.385159 10.748665 -0.792240 75.225612 -0.817082 0.000000 0.000000 0.000000 5.961472 7.472307 -77.817421 4.193400 -4.255728 71.193613 0.000000 -0.000000 0.000000 -2.932898 -8.740018 -71.594107 -0.556948 -0.151358 76.552769 
